<svg version="1.1" id="Layer_1" xmlns="http://www.w3.org/2000/svg" xmlns:xlink="http://www.w3.org/1999/xlink" x="0px" y="0px"
	 width="100%" viewBox="0 0 225 225" enable-background="new 0 0 225 225" xml:space="preserve">
<path fill="#E1013E" opacity="1.000000" stroke="none" 
	d="
M149.000000,226.000000 
	C99.333336,226.000000 50.166672,226.000000 1.000007,226.000000 
	C1.000004,151.000000 1.000004,76.000015 1.000002,1.000017 
	C75.999992,1.000011 150.999985,1.000011 225.999969,1.000006 
	C225.999985,75.999985 225.999985,150.999969 226.000000,225.999969 
	C200.500000,226.000000 175.000000,226.000000 149.000000,226.000000 
M132.965988,47.035446 
	C132.965988,47.035446 132.923676,47.170845 132.778992,46.533550 
	C132.350418,46.072796 131.921844,45.612041 131.007797,44.743847 
	C123.333076,36.391193 113.778778,34.849865 103.144516,36.908501 
	C100.023880,37.512611 98.853355,38.959610 98.720879,42.259933 
	C98.304428,52.634502 94.075562,61.267666 85.564606,67.432053 
	C82.789406,69.442101 79.558128,70.822456 76.536407,72.490280 
	C79.589897,77.845284 83.499359,79.975121 87.108421,78.522202 
	C92.477745,76.360657 97.868294,74.240501 103.319115,72.297127 
	C106.449715,71.180984 109.714287,70.902534 111.703987,74.359520 
	C113.579056,77.617355 112.364166,80.407822 109.846283,82.847839 
	C105.186493,87.363525 100.462044,91.818665 95.945045,96.474159 
	C88.410027,104.240166 86.526009,113.635834 88.535454,124.004333 
	C90.358139,133.409210 97.005203,139.333252 103.763039,145.267563 
	C108.114632,149.088852 113.058601,152.731842 116.045959,157.511673 
	C123.252159,169.041733 119.161545,177.541794 108.895432,183.139847 
	C108.185776,183.526810 106.976883,182.998245 106.136307,182.189926 
	C110.707352,173.140610 108.448433,165.783417 100.262245,164.082932 
	C98.002228,163.613495 95.428452,164.654434 92.786171,164.782379 
	C92.595047,164.770615 92.403915,164.758865 92.212791,164.747101 
	C92.476059,164.830627 92.739326,164.914154 93.059837,165.811310 
	C93.096413,166.354019 93.132996,166.896729 92.989075,167.815781 
	C92.796707,168.036270 92.555328,168.164474 91.754700,167.982239 
	C90.871346,170.073074 89.987984,172.163910 89.200119,174.808487 
	C89.145317,175.176727 89.090515,175.544952 88.877274,176.716965 
	C89.398079,178.358109 89.918877,179.999237 90.110657,181.958389 
	C90.110657,181.958389 90.455933,181.657715 90.201439,182.336411 
	C88.499428,187.162338 92.191338,186.631821 94.976318,187.017715 
	C94.976318,187.017715 94.936089,187.098419 95.102692,187.700668 
	C95.782280,188.089539 96.461876,188.478409 97.072548,188.904129 
	C97.072548,188.904129 97.039734,188.833191 97.531204,189.386063 
	C105.101891,193.286819 112.537590,193.139908 119.805656,188.717346 
	C119.805656,188.717346 119.737366,188.679230 120.499886,188.816483 
	C123.005272,187.212326 125.510666,185.608154 128.466110,183.504425 
	C135.892548,177.996323 138.777023,170.056061 139.445740,161.365143 
	C140.117004,152.641190 137.595779,144.534302 132.296967,137.433624 
	C140.903763,135.105057 146.132248,129.426651 150.243118,121.473312 
	C150.508423,119.934708 150.773727,118.396111 151.039047,116.857506 
	C149.998535,116.836899 148.958008,116.816284 147.016754,116.840584 
	C143.711456,116.815742 140.406143,116.790901 136.432037,116.375755 
	C134.753662,115.782959 133.075287,115.190163 131.542419,114.435562 
	C131.542419,114.435562 131.759384,114.419006 132.245255,114.724716 
	C132.424576,114.791306 132.603897,114.857895 133.568085,114.834717 
	C134.712219,113.273117 136.829117,111.724945 136.850876,110.147850 
	C137.083115,93.320290 137.010300,76.487999 136.918625,59.657566 
	C136.912018,58.443306 136.103241,57.233418 135.846008,56.080933 
	C135.846008,56.080933 135.780090,56.257229 135.878769,55.484291 
	C135.530823,54.316376 135.182892,53.148460 134.701492,51.855633 
	C134.701492,51.855633 134.816788,51.713795 134.854721,50.907612 
	C134.361008,50.057812 133.867279,49.208012 133.519516,48.377808 
	C133.519516,48.377808 133.476288,48.518581 133.433853,47.948223 
	C133.232590,47.630455 133.031311,47.312683 132.965988,47.035446 
z"/>
<path fill="#FAF4F4" opacity="1.000000" stroke="none" 
	d="
M89.035713,175.913193 
	C89.090515,175.544952 89.145317,175.176727 89.367256,174.265289 
	C90.444572,171.881516 91.354752,170.040970 92.264931,168.200409 
	C92.555328,168.164474 92.796707,168.036270 93.455734,167.484177 
	C98.069221,164.822586 101.971291,165.346649 105.045006,168.837311 
	C108.177429,172.394653 107.790276,176.375992 105.100601,180.122528 
	C104.046272,181.591156 102.711029,182.931793 106.000153,182.895447 
	C106.976883,182.998245 108.185776,183.526810 108.895432,183.139847 
	C119.161545,177.541794 123.252159,169.041733 116.045959,157.511673 
	C113.058601,152.731842 108.114632,149.088852 103.763039,145.267563 
	C97.005203,139.333252 90.358139,133.409210 88.535454,124.004333 
	C86.526009,113.635834 88.410027,104.240166 95.945045,96.474159 
	C100.462044,91.818665 105.186493,87.363525 109.846283,82.847839 
	C112.364166,80.407822 113.579056,77.617355 111.703987,74.359520 
	C109.714287,70.902534 106.449715,71.180984 103.319115,72.297127 
	C97.868294,74.240501 92.477745,76.360657 87.108421,78.522202 
	C83.499359,79.975121 79.589897,77.845284 76.536407,72.490280 
	C79.558128,70.822456 82.789406,69.442101 85.564606,67.432053 
	C94.075562,61.267666 98.304428,52.634502 98.720879,42.259933 
	C98.853355,38.959610 100.023880,37.512611 103.144516,36.908501 
	C113.778778,34.849865 123.333076,36.391193 131.353180,45.247421 
	C132.106918,46.224277 132.515305,46.697563 132.923676,47.170845 
	C132.923676,47.170845 132.965988,47.035446 132.899384,47.307812 
	C133.047272,47.892979 133.261780,48.205780 133.476288,48.518581 
	C133.476288,48.518581 133.519516,48.377808 133.541107,48.729214 
	C133.980743,49.958344 134.398758,50.836071 134.816788,51.713795 
	C134.816788,51.713795 134.701492,51.855633 134.731445,52.290215 
	C135.100967,53.902271 135.440521,55.079750 135.780090,56.257233 
	C135.780090,56.257229 135.846008,56.080933 135.675125,56.519440 
	C135.580963,74.495758 135.724167,92.033981 135.615021,109.570648 
	C135.605759,111.060020 133.911819,112.538918 132.767136,113.972618 
	C132.182404,113.942596 131.924271,114.108078 131.759384,114.419006 
	C131.759384,114.419006 131.542419,114.435562 131.124451,114.510757 
	C129.192459,115.104065 127.678444,115.622169 126.164429,116.140266 
	C126.262634,116.348862 126.360840,116.557457 126.459045,116.766052 
	C130.006317,116.766052 133.553574,116.766052 137.100845,116.766052 
	C140.406143,116.790901 143.711456,116.815742 147.855194,116.959923 
	C149.042145,118.697609 149.390656,120.315948 149.739182,121.934296 
	C146.132248,129.426651 140.903763,135.105057 132.296967,137.433624 
	C137.595779,144.534302 140.117004,152.641190 139.445740,161.365143 
	C138.777023,170.056061 135.892548,177.996323 127.902954,183.830994 
	C124.805656,185.664780 122.271507,187.171997 119.737366,188.679230 
	C119.737366,188.679230 119.805656,188.717346 119.389725,188.703445 
	C111.677803,191.082809 104.367882,191.349747 97.039734,188.833191 
	C97.039734,188.833191 97.072548,188.904129 96.976440,188.622025 
	C96.232246,187.926086 95.584167,187.512253 94.936081,187.098419 
	C94.936089,187.098419 94.976318,187.017715 94.798569,186.754044 
	C93.232529,184.879486 91.844231,183.268600 90.455933,181.657715 
	C90.455933,181.657715 90.110657,181.958389 90.206268,181.435226 
	C89.879829,179.245773 89.457771,177.579483 89.035713,175.913193 
M100.693939,62.599857 
	C105.591331,63.616665 100.224052,59.561569 101.776558,58.681324 
	C100.946671,59.625919 100.116783,60.570515 99.104111,61.999622 
	C99.186707,62.249359 99.269302,62.499096 99.351891,62.748833 
	C99.628777,62.562340 99.905663,62.375851 100.693939,62.599857 
z"/>
<path fill="#C20639" opacity="1.000000" stroke="none" 
	d="
M133.000519,114.022682 
	C133.911819,112.538918 135.605759,111.060020 135.615021,109.570648 
	C135.724167,92.033981 135.580963,74.495758 135.585831,56.489723 
	C136.103241,57.233418 136.912018,58.443306 136.918625,59.657566 
	C137.010300,76.487999 137.083115,93.320290 136.850876,110.147850 
	C136.829117,111.724945 134.712219,113.273117 133.237015,114.655884 
	C132.905945,114.477043 133.000519,114.022682 133.000519,114.022682 
z"/>
<path fill="#C81B4C" opacity="1.000000" stroke="none" 
	d="
M106.068230,182.542694 
	C102.711029,182.931793 104.046272,181.591156 105.100601,180.122528 
	C107.790276,176.375992 108.177429,172.394653 105.045006,168.837311 
	C101.971291,165.346649 98.069221,164.822586 93.545990,167.296005 
	C93.132996,166.896729 93.096413,166.354019 93.029922,165.405655 
	C93.000000,165.000000 92.998642,165.002350 92.998642,165.002350 
	C95.428452,164.654434 98.002228,163.613495 100.262245,164.082932 
	C108.448433,165.783417 110.707352,173.140610 106.068230,182.542694 
z"/>
<path fill="#CC2854" opacity="1.000000" stroke="none" 
	d="
M97.285469,189.109619 
	C104.367882,191.349747 111.677803,191.082809 119.401001,188.666000 
	C112.537590,193.139908 105.101891,193.286819 97.285469,189.109619 
z"/>
<path fill="#CE4C71" opacity="1.000000" stroke="none" 
	d="
M136.766449,116.570908 
	C133.553574,116.766052 130.006317,116.766052 126.459045,116.766052 
	C126.360840,116.557457 126.262634,116.348862 126.164429,116.140266 
	C127.678444,115.622169 129.192459,115.104065 131.051697,114.591667 
	C133.075287,115.190163 134.753662,115.782959 136.766449,116.570908 
z"/>
<path fill="#CC2854" opacity="1.000000" stroke="none" 
	d="
M90.328690,181.997070 
	C91.844231,183.268600 93.232529,184.879486 94.762878,186.781601 
	C92.191338,186.631821 88.499428,187.162338 90.328690,181.997070 
z"/>
<path fill="#CC2854" opacity="1.000000" stroke="none" 
	d="
M120.118622,188.747864 
	C122.271507,187.171997 124.805656,185.664780 127.677933,184.080780 
	C125.510666,185.608154 123.005272,187.212326 120.118622,188.747864 
z"/>
<path fill="#CE4C71" opacity="1.000000" stroke="none" 
	d="
M149.991150,121.703804 
	C149.390656,120.315948 149.042145,118.697609 148.305557,116.937469 
	C148.958008,116.816284 149.998535,116.836899 151.039047,116.857506 
	C150.773727,118.396111 150.508423,119.934708 149.991150,121.703804 
z"/>
<path fill="#CC2854" opacity="1.000000" stroke="none" 
	d="
M92.009811,168.091324 
	C91.354752,170.040970 90.444572,171.881516 89.319504,173.988403 
	C89.987984,172.163910 90.871346,170.073074 92.009811,168.091324 
z"/>
<path fill="#CC2854" opacity="1.000000" stroke="none" 
	d="
M88.956497,176.315079 
	C89.457771,177.579483 89.879829,179.245773 90.370773,181.276215 
	C89.918877,179.999237 89.398079,178.358109 88.956497,176.315079 
z"/>
<path fill="#C20639" opacity="1.000000" stroke="none" 
	d="
M135.829422,55.870762 
	C135.440521,55.079750 135.100967,53.902271 134.798187,52.352669 
	C135.182892,53.148460 135.530823,54.316376 135.829422,55.870762 
z"/>
<path fill="#C20639" opacity="1.000000" stroke="none" 
	d="
M134.835754,51.310703 
	C134.398758,50.836071 133.980743,49.958344 133.468140,48.719414 
	C133.867279,49.208012 134.361008,50.057812 134.835754,51.310703 
z"/>
<path fill="#CC2854" opacity="1.000000" stroke="none" 
	d="
M95.019386,187.399536 
	C95.584167,187.512253 96.232246,187.926086 97.010895,188.603607 
	C96.461876,188.478409 95.782280,188.089539 95.019386,187.399536 
z"/>
<path fill="#C20639" opacity="1.000000" stroke="none" 
	d="
M132.851334,46.852196 
	C132.515305,46.697563 132.106918,46.224277 131.595917,45.451141 
	C131.921844,45.612041 132.350418,46.072796 132.851334,46.852196 
z"/>
<path fill="#C81B4C" opacity="1.000000" stroke="none" 
	d="
M93.001297,164.998840 
	C92.739326,164.914154 92.476059,164.830627 92.212791,164.747101 
	C92.403915,164.758865 92.595047,164.770615 92.892410,164.892365 
	C92.998642,165.002350 93.000000,165.000000 93.001297,164.998840 
z"/>
<path fill="#CE4C71" opacity="1.000000" stroke="none" 
	d="
M132.767136,113.972618 
	C133.000519,114.022682 132.905945,114.477043 132.844574,114.700760 
	C132.603897,114.857895 132.424576,114.791306 132.002319,114.571861 
	C131.924271,114.108078 132.182404,113.942596 132.767136,113.972618 
z"/>
<path fill="#C20639" opacity="1.000000" stroke="none" 
	d="
M133.455078,48.233402 
	C133.261780,48.205780 133.047272,47.892979 132.831406,47.287544 
	C133.031311,47.312683 133.232590,47.630455 133.455078,48.233402 
z"/>
<path fill="#D13058" opacity="1.000000" stroke="none" 
	d="
M99.286896,61.515106 
	C100.116783,60.570515 100.946671,59.625919 101.776558,58.681324 
	C100.224052,59.561569 105.591331,63.616665 100.219727,62.218887 
	C99.592644,61.730312 99.439774,61.622707 99.286896,61.515106 
z"/>
<path fill="#D13058" opacity="1.000000" stroke="none" 
	d="
M99.964027,62.013634 
	C99.905663,62.375851 99.628777,62.562340 99.351891,62.748833 
	C99.269302,62.499096 99.186707,62.249359 99.195503,61.757362 
	C99.439774,61.622707 99.592644,61.730312 99.964027,62.013634 
z"/>
</svg>